<svg
  xmlns="http://www.w3.org/2000/svg"
  viewBox="40 50 250 250"
>
  <g fill="currentColor" transform="translate(-45.843262,-56.243885)">
    <path
      d="M 133.88462,295.33779 C 88.036275,292.57122 66.820375,282.38241 54.779265,257.34791 51.093185,249.68423 49.278665,242.4318 47.186365,227 c -2.00944,-14.82067 -1.68652,-89.08509 0.45095,-103.70926 3.17063,-21.69285 8.20282,-33.813746 18.44122,-44.418896 14.30846,-14.82099 32.2327,-20.09847 74.754605,-22.01018 41.76028,-1.87748 83.38956,0.6184 103.56464,6.2092 26.13488,7.24235 41.37781,24.76974 46.9002,53.929136 4.72937,24.97212 5.03236,89.27334 0.55092,116.91648 -2.98188,18.39328 -8.58837,31.25007 -17.48428,40.09489 -12.40766,12.33639 -30.62642,18.46132 -62.37522,20.96978 -11.44998,0.90466 -64.97271,1.14906 -78.10478,0.35664 z m 15.44632,-65.18274 c 4.52468,-2.33928 4.94219,-3.236 11.01364,-23.65505 2.78015,-9.35 6.53812,-21.63967 8.35106,-27.31038 l 3.29624,-10.31038 4.29899,15.81038 c 8.97005,32.98918 11.30221,38.29834 18.4461,41.99259 3.67998,1.90299 14.25709,2.16716 20.14765,0.50319 6.52057,-1.84193 14.72003,-7.35468 18.46528,-12.41476 l 3.50045,-4.72937 1.29907,2.47937 c 2.0403,3.89404 3.34115,3.0065 2.5952,-1.77064 -0.74887,-4.79584 -1.9555,-6.06903 -4.86,-5.12808 -3.94965,1.27956 -12.34731,1.53017 -14.40329,0.42984 -4.12207,-2.20607 -2.58027,-4.55173 3.86717,-5.88343 7.0734,-1.46098 13.49186,-5.94421 16.7717,-11.71484 1.23587,-2.17442 3.35328,-7.55349 4.70535,-11.95349 3.3681,-10.96066 9.55907,-35.80745 9.55907,-38.36426 0,-4.16643 -4.02905,-5.44108 -15.57549,-4.92756 -7.59621,0.33784 -10.95303,0.89177 -12.04966,1.9884 -0.94564,0.94564 -2.59568,7.90357 -4.36626,18.41176 -4.67272,27.73206 -10.7075,48.29467 -14.61357,49.79357 -3.10996,1.1934 -7.00172,-9.47788 -14.48858,-39.72797 -6.52325,-26.35666 -6.55247,-26.43953 -9.94007,-28.19133 -3.70717,-1.91705 -23.75544,-2.09453 -26.27689,-0.23261 -1.09027,0.80509 -3.79828,9.08044 -7.60829,23.25 -6.6338,24.67129 -14.27251,48.04157 -15.66261,47.91901 -1.26314,-0.11136 -6.50274,-19.79556 -11.90779,-44.73532 -2.48127,-11.44898 -4.95842,-21.65158 -5.50478,-22.67245 -0.54635,-1.02088 -2.1819,-2.79103 -3.63455,-3.93369 C 112.42258,133.24202 110.74683,133 100.37108,133 H 88.627255 l -1.2359,2.98373 c -1.09907,2.6534 -0.83639,4.12033 2.37263,13.25 1.98469,5.64645 7.469,22.64127 12.187345,37.76627 4.71834,15.125 9.4544,30.28095 10.52457,33.67989 2.23427,7.09619 5.58905,9.88299 13.66154,11.34858 6.95548,1.2628 19.0108,0.28905 23.1935,-1.87342 z"
      fill-rule="evenodd"
    />
  </g>
</svg>
